<svg width="16" height="16" viewBox="0 0 16 16" fill="none" xmlns="http://www.w3.org/2000/svg">
<path d="M3.72259 6.58531C4.47975 6.58531 5.20591 6.28452 5.74131 5.74912C6.27671 5.21373 6.5775 4.48757 6.5775 3.7304C6.5775 2.97323 6.27671 2.24707 5.74131 1.71167C5.20591 1.17627 4.47975 0.875488 3.72259 0.875488C2.96542 0.875488 2.23926 1.17627 1.70386 1.71167C1.16846 2.24707 0.867676 2.97323 0.867676 3.7304C0.867676 4.48757 1.16846 5.21373 1.70386 5.74912C2.23926 6.28452 2.96542 6.58531 3.72259 6.58531Z" stroke="#19213D" stroke-width="0.96" stroke-linecap="round" stroke-linejoin="round"/>
<path d="M12.2776 6.58533C13.0347 6.58533 13.7609 6.28454 14.2963 5.74914C14.8317 5.21375 15.1325 4.48759 15.1325 3.73042C15.1325 2.97325 14.8317 2.24709 14.2963 1.71169C13.7609 1.17629 13.0347 0.875509 12.2776 0.875509C11.5204 0.875509 10.7942 1.17629 10.2588 1.71169C9.72344 2.24709 9.42266 2.97325 9.42266 3.73042C9.42266 4.48759 9.72344 5.21375 10.2588 5.74914C10.7942 6.28454 11.5204 6.58533 12.2776 6.58533Z" stroke="#19213D" stroke-width="0.96" stroke-linecap="round" stroke-linejoin="round"/>
<path d="M3.72259 15.1245C4.0975 15.1245 4.46874 15.0507 4.81511 14.9072C5.16149 14.7637 5.47621 14.5534 5.74131 14.2883C6.00641 14.0232 6.21671 13.7085 6.36018 13.3621C6.50365 13.0158 6.5775 12.6445 6.5775 12.2696C6.5775 11.8947 6.50365 11.5235 6.36018 11.1771C6.21671 10.8307 6.00641 10.516 5.74131 10.2509C5.47621 9.98578 5.16149 9.77549 4.81511 9.63202C4.46874 9.48854 4.0975 9.4147 3.72259 9.4147C2.96542 9.4147 2.23926 9.71548 1.70386 10.2509C1.16846 10.7863 0.867676 11.5124 0.867676 12.2696C0.867676 13.0268 1.16846 13.7529 1.70386 14.2883C2.23926 14.8237 2.96542 15.1245 3.72259 15.1245Z" stroke="#19213D" stroke-width="0.96" stroke-linecap="round" stroke-linejoin="round"/>
<path d="M12.2776 15.1245C12.6525 15.1245 13.0237 15.0507 13.3701 14.9072C13.7165 14.7637 14.0312 14.5534 14.2963 14.2883C14.5614 14.0232 14.7717 13.7085 14.9152 13.3621C15.0586 13.0158 15.1325 12.6445 15.1325 12.2696C15.1325 11.8947 15.0586 11.5235 14.9152 11.1771C14.7717 10.8307 14.5614 10.516 14.2963 10.2509C14.0312 9.98578 13.7165 9.77549 13.3701 9.63202C13.0237 9.48854 12.6525 9.4147 12.2776 9.4147C11.5204 9.4147 10.7942 9.71548 10.2588 10.2509C9.72344 10.7863 9.42266 11.5124 9.42266 12.2696C9.42266 13.0268 9.72344 13.7529 10.2588 14.2883C10.7942 14.8237 11.5204 15.1245 12.2776 15.1245Z" stroke="#19213D" stroke-width="0.96" stroke-linecap="round" stroke-linejoin="round"/>
</svg>
